<svg width="1570" height="1030" viewBox="0 0 1570 1030" fill="none" xmlns="http://www.w3.org/2000/svg">
<g clip-path="url(#clip0_1_5)">
<rect width="1570" height="1030" fill="url(#paint0_linear_1_5)"/>
<path d="M1191.86 350.483C1201.62 456.165 680.99 488.072 680.99 195.125C680.99 -150.952 553.661 -71.304 387 -60.6468" stroke="url(#paint1_linear_1_5)" stroke-width="5"/>
<path fill-rule="evenodd" clip-rule="evenodd" d="M1257.15 677.827C1256.65 675.423 1257.27 672.954 1259.61 670.463C1268.93 660.531 1296.8 666.784 1329.95 674.219C1341.92 676.905 1354.59 679.746 1367.31 682.034C1373.29 683.108 1372.53 689.358 1368.24 695.818C1582.79 755.596 1740.21 952.284 1740.21 1185.7C1740.21 1466.56 1512.32 1694.23 1231.21 1694.23C950.095 1694.23 722.208 1466.56 722.208 1185.7C722.208 1086.15 722.3 1029.21 771.792 950.786C863.675 785.204 1049.75 677.178 1231.21 677.178C1239.91 677.178 1248.55 677.396 1257.15 677.827Z" fill="url(#paint2_linear_1_5)"/>
<mask id="mask0_1_5" style="mask-type:alpha" maskUnits="userSpaceOnUse" x="722" y="665" width="1019" height="1030">
<path fill-rule="evenodd" clip-rule="evenodd" d="M1188.85 679.113C1187.02 676.13 1186.79 672.983 1189.78 669.796C1197.89 661.154 1222.14 666.594 1250.98 673.063C1261.26 675.369 1272.12 677.806 1283.05 679.783C1539.81 705.731 1740.21 922.337 1740.21 1185.7C1740.21 1466.56 1512.32 1694.23 1231.21 1694.23C950.095 1694.23 722.208 1466.56 722.208 1185.7C722.208 1086.15 722.3 1029.21 771.792 950.786C816.409 870.382 883.234 803.549 960.956 756.067C971.095 747.457 990.384 730.758 999.22 721.929C1009.38 711.776 1019.68 714.139 1025.11 722.375C1077.49 699.092 1133.02 684.183 1188.85 679.113Z" fill="url(#paint3_linear_1_5)"/>
</mask>
<g mask="url(#mask0_1_5)">
<path d="M1253.72 906.387C1020.77 990.552 813.266 913.642 851.811 793.837C979.452 308.455 1454.08 613.459 1455.68 646.933C1457.27 680.408 1544.9 801.18 1253.72 906.387Z" fill="url(#paint4_radial_1_5)"/>
<g filter="url(#filter0_f_1_5)">
<path d="M1669.04 1218.54C1499.85 1435.26 1292.74 1432.55 1255.39 1281.23C1117.61 723.102 1673.52 758.367 1716.14 880.274C1730 919.898 1880.54 947.636 1669.04 1218.54Z" fill="url(#paint5_radial_1_5)"/>
</g>
</g>
<mask id="mask1_1_5" style="mask-type:alpha" maskUnits="userSpaceOnUse" x="722" y="692" width="1171" height="1170">
<path d="M1892.24 1276.98C1892.24 1599.78 1630.32 1861.45 1307.22 1861.45C984.128 1861.45 722.208 1599.78 722.208 1276.98C722.208 1174.54 735.857 1084.95 782.199 1001.23C881.883 821.15 1086.66 692.513 1307.22 692.513C1630.32 692.513 1892.24 954.19 1892.24 1276.98Z" fill="url(#paint6_linear_1_5)"/>
</mask>
<g mask="url(#mask1_1_5)">
<ellipse rx="342.783" ry="330.964" transform="matrix(0.549461 0.83552 -0.835989 0.548747 964.53 1112.88)" fill="url(#paint7_radial_1_5)"/>
</g>
<path d="M1188.35 672.218C1268.32 660.967 1338.83 660.147 1329.96 695.213C1321.08 730.279 1268.32 776.722 1188.35 787.972C1108.38 799.223 1017.96 787.961 1026.84 752.895C1035.72 717.829 1108.38 683.469 1188.35 672.218Z" fill="url(#paint8_radial_1_5)"/>
<mask id="mask2_1_5" style="mask-type:alpha" maskUnits="userSpaceOnUse" x="1026" y="665" width="305" height="128">
<path d="M1188.35 672.218C1268.32 660.967 1338.83 660.147 1329.96 695.213C1321.08 730.279 1268.32 776.722 1188.35 787.972C1108.38 799.223 1017.96 787.961 1026.84 752.895C1035.72 717.829 1108.38 683.469 1188.35 672.218Z" fill="url(#paint9_radial_1_5)"/>
</mask>
<g mask="url(#mask2_1_5)">
<g filter="url(#filter1_f_1_5)">
<path d="M1310.69 726.493C1338.25 643.289 954.614 729.796 1110.57 783.899C1095.46 798.996 993.906 762.294 981.034 717.004C968.162 671.714 1002.86 690.724 1057.15 652.703C1111.43 614.682 1269.26 620.273 1325.78 621.391C1382.31 622.509 1373.36 663.886 1378.39 683.455C1382.42 699.111 1320.2 710.278 1310.69 726.493Z" fill="url(#paint10_radial_1_5)"/>
</g>
</g>
<ellipse rx="150.753" ry="185.843" transform="matrix(0.960969 0.276656 -0.234462 0.972125 868.456 1134.66)" fill="#2C2F41"/>
<ellipse rx="208.398" ry="227.44" transform="matrix(0.863457 0.504423 0.4842 -0.874957 1558.68 1116.12)" fill="#2C2F42"/>
<ellipse rx="139.478" ry="171.943" transform="matrix(0.960969 0.276656 -0.234462 0.972125 868.456 1134.66)" fill="url(#paint11_radial_1_5)"/>
<ellipse rx="195.675" ry="213.554" transform="matrix(0.863197 0.504868 0.483708 -0.875229 1557.47 1111.63)" fill="url(#paint12_radial_1_5)"/>
<path d="M1187.64 675.003C1227.57 669.386 1264.91 666.409 1291.11 669.148C1304.22 670.518 1314.31 673.301 1320.57 677.726C1326.76 682.106 1329.05 687.963 1327.11 695.613C1322.96 712.024 1308.39 731.546 1284.72 748.494C1261.1 765.413 1228.56 779.629 1189.05 785.187C1149.32 790.776 1107.01 790.766 1075.81 785.026C1060.19 782.154 1047.51 777.874 1039.32 772.257C1031.06 766.596 1027.81 759.914 1029.69 752.495C1031.67 744.663 1037.24 736.677 1046.08 728.77C1054.95 720.837 1066.95 713.129 1081.36 706.052C1110.16 691.905 1147.92 680.592 1187.64 675.003Z" stroke="#2C2F41" stroke-width="5.74671"/>
<g filter="url(#filter2_f_1_5)">
<path d="M1340.92 917.882C1237.21 1012.24 1309.9 1287.4 1317.47 1291.88C1413.59 1528.03 1107.47 1389.92 1161.65 1110.16C1215.83 830.391 1444.63 823.526 1340.92 917.882Z" fill="#2C2F41"/>
</g>
<path d="M1495.53 718.607C1486.63 718.607 1474.57 714.273 1470.76 710.332C1463.43 702.731 1487.89 695.81 1496.45 701.809C1505.01 707.809 1500.16 718.607 1495.53 718.607Z" fill="#313447"/>
<path d="M1259.1 868.526C1273.02 864.46 1287.34 863.557 1293.48 873.063C1302.33 886.758 1289.78 890.013 1279.73 898.387C1270.11 906.408 1265.25 920.222 1253.74 909.109C1240.06 895.905 1251.87 870.639 1259.1 868.526Z" fill="#313447"/>
<path d="M1067.87 934.47C1070.62 936.942 1072.73 939.925 1071.49 942.527C1069.09 947.546 1057.31 943.468 1058.35 938.737C1059.38 934.007 1066.45 933.185 1067.87 934.47Z" fill="#313447"/>
<path d="M1468.01 807.421C1470.76 809.893 1472.87 812.876 1471.63 815.479C1469.23 820.497 1457.44 816.419 1458.48 811.689C1459.52 806.958 1466.58 806.137 1468.01 807.421Z" fill="#313447"/>
<path d="M951.811 864.438C947.155 862.951 949.206 858.275 951.811 853.457C956.834 844.167 974.695 842.957 968.88 851.123C962.818 859.635 956.218 865.846 951.811 864.438Z" fill="#313447"/>
<path d="M1347.24 685.748C1346.88 688.84 1345.93 691.826 1343.78 692.516C1339.65 693.845 1337.14 684.237 1340.52 682.226C1343.9 680.214 1347.42 684.141 1347.24 685.748Z" fill="#383B51"/>
<path d="M1019.95 764.459C1022.31 766.492 1024.25 768.951 1023.62 771.112C1022.4 775.278 1013.03 771.961 1013.26 768.04C1013.49 764.118 1018.72 763.403 1019.95 764.459Z" fill="#383B51"/>
<path d="M888.06 892.999C893.191 894.045 890.397 908.024 888.89 914.332C885.983 926.496 860.404 917.134 864.394 906.212C868.553 894.826 883.203 892.008 888.06 892.999Z" fill="#313447"/>
<path d="M1313.05 295.38C1313.05 294.093 1299.85 283.042 1293.25 277.678C1293.25 276.069 1294.85 270.168 1296.99 270.168C1299.13 270.168 1318.93 288.407 1319.47 288.943C1320 289.479 1313.05 296.99 1313.05 295.38Z" fill="url(#paint13_linear_1_5)"/>
<path d="M1277.55 284.95C1277.43 284.31 1269.52 280.105 1265.59 278.083C1265.44 277.283 1265.72 274.19 1266.84 273.981C1267.95 273.771 1279.97 280.905 1280.29 281.12C1280.62 281.334 1277.7 285.751 1277.55 284.95Z" fill="#E1E1E1"/>
<rect width="11.0021" height="4.58585" rx="2" transform="matrix(0.995341 -0.0964217 0.0959392 0.995387 1215.35 362.558)" fill="#E1E1E1"/>
<path d="M1201.32 287.454C1203.13 286.782 1204.75 288.799 1203.7 290.416L1196.7 301.214C1196.36 301.751 1195.77 302.089 1195.13 302.124L1193.58 302.207C1192.48 302.266 1191.53 301.42 1191.48 300.317L1191.07 292.769C1191.03 291.895 1191.55 291.093 1192.37 290.787L1201.32 287.454Z" fill="#E1E1E1"/>
<path d="M1195.36 294.452C1197.33 289.697 1205.63 288.265 1209.9 287.314C1214.62 286.264 1221.93 284.141 1223.51 286.65C1225.09 289.16 1238.3 360.622 1237.25 361.811C1236.2 363 1211.03 366.037 1207.87 364.056C1204.71 362.075 1193.38 299.207 1195.36 294.452Z" fill="#E1E1E1"/>
<path fill-rule="evenodd" clip-rule="evenodd" d="M1216.86 271.512C1212.45 270.891 1208.24 269.077 1205.4 265.374C1197.22 254.702 1213.12 244.514 1220.32 247.172C1227.52 249.831 1238.57 262.979 1235.86 267.003C1234.79 268.607 1231.02 270.37 1226.37 271.233L1240.21 283.04L1228.97 293.029L1216.86 271.512Z" fill="#FFB287"/>
<path fill-rule="evenodd" clip-rule="evenodd" d="M1211 245.595C1209.05 246.491 1206.68 248.313 1205.83 249.254C1205.23 247.499 1204.18 245.883 1202.78 244.647C1201.42 243.445 1199.8 242.83 1198.18 242.12C1197.43 241.793 1196.65 241.499 1195.84 241.459C1195.02 241.419 1194.21 241.63 1193.5 242.015C1192.78 242.409 1192.16 242.978 1191.67 243.639C1191.45 243.931 1191.32 244.265 1191.12 244.565C1190.92 244.871 1190.64 244.819 1190.3 244.823C1189.47 244.832 1188.61 245.24 1187.95 245.694C1187.22 246.203 1186.62 246.914 1186.18 247.695C1185.75 248.454 1185.47 249.325 1185.47 250.224C1185.47 250.624 1185.51 251.038 1185.65 251.424C1185.7 251.582 1185.75 251.657 1185.68 251.802C1185.6 251.935 1185.48 252.047 1185.4 252.182C1184.66 253.485 1184.48 255.113 1184.92 256.608C1185.18 257.479 1186 258.685 1187.11 259.866C1188.22 261.048 1192.12 263.245 1194.17 263.492C1195.99 263.712 1197.94 263.2 1199.5 262.346C1199.51 264.096 1200.02 265.837 1200.71 267.465C1201.45 269.235 1202.42 270.902 1203.59 272.435C1204.7 273.893 1205.97 275.348 1207.47 276.403C1208.88 277.39 1210.43 277.848 1212.07 277.55C1212.83 277.413 1213.55 277.169 1214.26 276.904C1214.96 276.642 1215.66 276.372 1216.31 276C1217.53 275.294 1218.69 274.197 1218.76 272.662C1218.78 272.109 1218.77 271.454 1218.66 270.904C1218.62 270.706 1218.59 270.58 1218.38 270.534C1218.14 270.478 1217.86 270.518 1217.61 270.524C1216.2 270.555 1214.9 270.086 1213.81 269.113C1212.71 268.127 1211.75 266.446 1212.4 265.018C1213.19 263.256 1215.24 262.647 1216.97 262.241C1215.91 260.04 1215.53 257.548 1216.42 255.318C1217.4 252.851 1219.34 250.941 1220.48 248.557C1220.78 247.936 1221.06 247.28 1221.05 246.563C1221.05 246.263 1221.02 245.891 1220.88 245.614C1220.7 245.251 1220.29 245.172 1219.94 245.072C1218.08 244.543 1212.95 244.7 1211 245.595Z" fill="#191847"/>
<path fill-rule="evenodd" clip-rule="evenodd" d="M1250.85 342.939L1329.99 387.126L1393.04 426.713L1399.54 422.949L1277.23 327.671L1250.85 342.939Z" fill="white"/>
<path fill-rule="evenodd" clip-rule="evenodd" d="M1387.55 426.38C1387.87 428.354 1388.27 429.743 1388.73 430.549C1389.3 431.529 1390.29 432.864 1391.69 434.555C1392.83 433.899 1403.02 428.001 1422.26 416.863C1421.54 413.77 1420.26 412.614 1418.43 413.395C1416.6 414.176 1415.07 414.809 1413.84 415.295L1395.97 417.169C1395.63 417.205 1395.38 417.513 1395.42 417.858C1395.42 417.864 1395.42 417.87 1395.42 417.876L1395.78 420.625C1394.63 422.283 1393.55 423.399 1392.56 423.972C1391.76 424.438 1390.46 424.755 1388.66 424.924L1388.66 424.924C1387.98 424.989 1387.47 425.601 1387.53 426.291C1387.54 426.321 1387.54 426.351 1387.55 426.38Z" fill="#FFCA00"/>
<path d="M1422.14 416.221C1421.73 415.975 1401.28 427.704 1391.11 433.599C1391 434.143 1391.51 434.659 1391.94 435.056C1392.38 435.452 1422.45 418.24 1422.74 417.578C1423.02 416.916 1422.64 416.529 1422.14 416.221Z" fill="#CBA71E"/>
<path fill-rule="evenodd" clip-rule="evenodd" d="M1379.39 422.429L1389.74 411.367C1374.77 398.08 1357.59 383.856 1338.23 368.696C1318.87 353.536 1299.32 339.408 1279.57 326.314L1244.15 346.815C1267.73 364.191 1290.69 379.086 1313.04 391.501C1335.39 403.916 1357.51 414.226 1379.39 422.429Z" fill="url(#paint14_radial_1_5)"/>
<path fill-rule="evenodd" clip-rule="evenodd" d="M1248.2 344.471C1258.06 370.39 1268.18 404.936 1268.03 406.271C1267.92 407.162 1254.53 422.35 1227.85 451.836L1232.57 456.772C1268.36 428.521 1286.42 412.229 1286.72 407.896C1287.18 401.397 1281.66 355.358 1274.69 329.137L1248.2 344.471Z" fill="url(#paint15_linear_1_5)"/>
<path fill-rule="evenodd" clip-rule="evenodd" d="M1236.5 440.204L1244.31 448.031C1274.99 433.694 1291.82 421.48 1294.79 411.389C1297.76 401.299 1291.74 373.484 1276.75 327.945L1242.98 347.495C1256.81 383.881 1263.82 402.956 1263.99 404.719C1264.17 406.481 1255 418.31 1236.5 440.204Z" fill="url(#paint16_radial_1_5)"/>
<path fill-rule="evenodd" clip-rule="evenodd" d="M1228.08 448.513C1226.19 449.18 1224.9 449.812 1224.19 450.41C1223.32 451.137 1222.18 452.343 1220.76 454.027C1221.61 455.032 1229.17 464.068 1243.45 481.133C1246.36 479.884 1247.28 478.422 1246.19 476.749C1245.11 475.075 1244.22 473.674 1243.53 472.544L1238.59 455.232C1238.49 454.899 1238.15 454.707 1237.81 454.802C1237.81 454.804 1237.8 454.805 1237.8 454.807L1235.16 455.646C1233.33 454.791 1232.05 453.924 1231.31 453.046C1230.71 452.332 1230.18 451.105 1229.7 449.363L1229.7 449.363C1229.52 448.695 1228.83 448.302 1228.16 448.486C1228.13 448.494 1228.1 448.503 1228.08 448.513Z" fill="#FFCA00"/>
<path fill-rule="evenodd" clip-rule="evenodd" d="M1292.36 288.399L1302.75 274.803C1301.45 266.62 1302.12 261.915 1304.78 260.688C1306.41 258.823 1306.91 269.67 1310.45 267.147C1313.99 264.624 1320.38 253.341 1322.65 254.057C1326.01 255.115 1326.72 262.605 1325.6 266.98C1323.51 275.157 1320.49 278.975 1311.95 285.994C1307.48 289.665 1303.23 294.947 1299.2 301.84L1292.36 288.399Z" fill="url(#paint17_linear_1_5)"/>
<mask id="mask3_1_5" style="mask-type:alpha" maskUnits="userSpaceOnUse" x="1292" y="254" width="35" height="48">
<path fill-rule="evenodd" clip-rule="evenodd" d="M1292.36 288.399L1302.75 274.803C1301.45 266.62 1302.12 261.915 1304.78 260.688C1306.41 258.823 1306.91 269.67 1310.45 267.147C1313.99 264.624 1320.38 253.341 1322.65 254.057C1326.01 255.115 1326.72 262.605 1325.6 266.98C1323.51 275.157 1320.49 278.975 1311.95 285.994C1307.48 289.665 1303.23 294.947 1299.2 301.84L1292.36 288.399Z" fill="url(#paint18_linear_1_5)"/>
</mask>
<g mask="url(#mask3_1_5)">
<path d="M1302.02 272.441C1301.58 272.721 1301.97 275.434 1302.21 276.756C1302.64 277.028 1307.6 286.124 1311.44 287.135C1315.28 288.146 1317.96 284.064 1318.3 283.248C1318.65 282.431 1308.07 273.257 1305.97 272.091C1303.88 270.925 1302.56 272.091 1302.02 272.441Z" fill="#E1E1E1"/>
</g>
<path d="M1270.01 275.677L1249.17 304.747L1259.28 307.331L1275.49 280.461C1282.37 273.469 1285.16 269.651 1283.86 269.009C1281.91 268.046 1280.48 270.632 1279.06 270.196C1277.63 269.76 1277.41 265.488 1277.36 261.425C1277.32 257.362 1275.63 258.695 1274.83 259.746C1272.73 264.081 1271.12 269.391 1270.01 275.677Z" fill="#E1E1E1"/>
<mask id="mask4_1_5" style="mask-type:alpha" maskUnits="userSpaceOnUse" x="1249" y="258" width="36" height="50">
<path d="M1270.01 275.677L1249.17 304.747L1259.28 307.331L1275.49 280.46C1282.37 273.468 1285.16 269.651 1283.86 269.009C1281.91 268.046 1280.48 270.632 1279.06 270.196C1277.63 269.759 1277.41 265.488 1277.36 261.425C1277.32 257.362 1275.63 258.695 1274.83 259.746C1272.73 264.081 1271.12 269.391 1270.01 275.677Z" fill="#E1E1E1"/>
</mask>
<g mask="url(#mask4_1_5)">
<path d="M1279.23 277.842C1279.29 277.424 1273.06 274.786 1269.95 273.519C1269.58 273.136 1268.22 276.465 1268.1 277.372C1267.98 278.278 1275.39 280.649 1276.97 280.963C1278.55 281.276 1279.16 278.365 1279.23 277.842Z" fill="#B9B9B9"/>
</g>
<path fill-rule="evenodd" clip-rule="evenodd" d="M1248.31 296.208C1254.86 292.324 1262.84 285.844 1268.78 274.451L1277.2 280.552C1274.44 290.728 1268.39 301.278 1260.31 305.656C1253.95 309.106 1246.37 303.361 1248.31 296.208Z" fill="#E1E1E1"/>
<path fill-rule="evenodd" clip-rule="evenodd" d="M1264.78 304.273C1272.79 301.973 1283.33 293.121 1296.41 277.717C1305.37 283.824 1310.74 288.77 1312.51 292.556C1302.64 308.128 1292.44 318.433 1282.59 324.424C1286.32 330.173 1288.85 336.235 1289.4 342.794C1290.54 356.279 1255.75 363.318 1247.07 370.92C1229.44 354.501 1236.62 339.521 1229.27 326.737C1221.22 312.738 1220.03 284.713 1221.68 283.758L1236.71 275.055C1243.7 285.261 1254.66 294.621 1264.78 304.273Z" fill="url(#paint19_linear_1_5)"/>
<path d="M1242.23 335.499C1248.1 341.382 1268.61 330.798 1273.24 328.302C1268.05 333.582 1243.69 345.681 1240.26 342.052C1236.53 338.107 1230.63 310.579 1231.25 313.279C1231.88 315.979 1235.76 329.009 1242.23 335.499Z" fill="#E1E1E1"/>
<path d="M1271.53 356.552C1271.99 356.173 1272.42 355.842 1272.78 355.573C1272.62 355.785 1272.18 356.123 1271.53 356.552C1269.01 358.602 1265.35 362.064 1264.36 364.799C1262.9 368.849 1253.59 374.924 1253.14 374.474C1252.69 374.024 1249.44 368.061 1250.78 367.499C1251.96 367.007 1266.96 359.545 1271.53 356.552Z" fill="#E1E1E1"/>
<path d="M1284.24 351.392C1284.01 352.696 1289.01 369.276 1291.56 378.763C1291.99 380.355 1299.78 383.459 1298.63 382.98C1297.49 382.501 1284.53 349.763 1284.24 351.392Z" fill="#E1E1E1"/>
<path d="M1188.09 308.817C1189.55 305.297 1195.69 304.237 1198.85 303.532C1202.34 302.755 1207.88 302.657 1209.05 304.514C1210.22 306.372 1219.88 357.802 1219.1 358.682C1218.32 359.562 1199.69 361.811 1197.35 360.344C1195.01 358.878 1186.62 312.337 1188.09 308.817Z" fill="#E1E1E1"/>
<path d="M1194.87 292.3C1196.85 287.545 1205.15 286.113 1209.42 285.161C1214.13 284.111 1221.45 281.989 1223.03 284.498C1224.61 287.008 1237.82 358.47 1236.77 359.659C1235.71 360.847 1210.55 363.885 1207.39 361.904C1204.23 359.923 1192.9 297.055 1194.87 292.3Z" fill="#F5F5F5"/>
<mask id="mask5_1_5" style="mask-type:alpha" maskUnits="userSpaceOnUse" x="1187" y="303" width="33" height="58">
<path d="M1188.09 308.817C1189.55 305.297 1195.69 304.237 1198.85 303.532C1202.34 302.755 1207.88 302.657 1209.05 304.514C1210.22 306.372 1219.88 357.802 1219.1 358.682C1218.32 359.562 1199.69 361.811 1197.35 360.344C1195.01 358.878 1186.62 312.337 1188.09 308.817Z" fill="white"/>
</mask>
<g mask="url(#mask5_1_5)">
<path d="M1194.42 324.53C1194.37 324.283 1191.07 305.493 1190.33 304.949" stroke="#FFCA00" stroke-width="3"/>
</g>
<path d="M1211.97 354.638C1210.82 354.198 1206.15 328.631 1203.96 315.902C1203.55 303.47 1219.44 303.196 1221.57 312.262C1221.86 313.53 1230.33 352.028 1230.13 352.99C1229.92 353.951 1213.41 355.188 1211.97 354.638Z" fill="white"/>
<path d="M1209.82 351.602C1208.46 351.084 1202.96 320.963 1200.37 305.968C1199.89 291.322 1218.61 290.999 1221.12 301.679C1221.47 303.174 1231.45 348.527 1231.2 349.66C1230.96 350.793 1211.51 352.249 1209.82 351.602Z" fill="url(#paint20_linear_1_5)"/>
<path d="M1210.18 353.389C1209.26 352.536 1209.33 351.554 1209.48 351.169C1211.07 348.948 1230.47 347.527 1231.27 348.238C1232.07 348.948 1231.45 350.192 1231.27 351.169C1231.09 352.146 1211.34 354.455 1210.18 353.389Z" fill="#E1E1E1"/>
<path d="M1266.06 318.511C1271.23 324.647 1274.61 326.179 1276.17 326.116C1271.95 330.59 1251.46 339.199 1248.29 335.218C1245.44 331.633 1237.82 312.675 1235.75 308.491C1235.44 308.295 1235.26 308.091 1235.23 307.876C1235.17 307.448 1235.36 307.717 1235.75 308.491C1239.35 310.794 1260.63 312.045 1266.06 318.511Z" fill="white"/>
<ellipse cx="1215.79" cy="247.974" rx="36.3851" ry="36.4773" fill="url(#paint21_linear_1_5)"/>
<mask id="mask6_1_5" style="mask-type:alpha" maskUnits="userSpaceOnUse" x="1179" y="211" width="74" height="74">
<ellipse cx="1215.79" cy="247.974" rx="36.3851" ry="36.4773" fill="white"/>
</mask>
<g mask="url(#mask6_1_5)">
<path d="M1245.99 267.46C1248.37 265.678 1238.24 279.651 1233.6 283.271C1233.6 284.02 1213.89 291.604 1210.9 290.668C1207.91 289.732 1210.16 289.825 1209.78 287.11C1209.41 284.395 1226.97 276.904 1228.93 275.874C1230.89 274.844 1239.41 272.398 1245.99 267.46Z" fill="#FEFFFF"/>
</g>
<path d="M1190.81 232.662C1215.82 210.619 1237.83 229.029 1236.61 227.04C1231.15 218.09 1220.84 214.537 1213.64 215.351C1203.36 216.513 1194.27 221.224 1190.81 232.662Z" fill="#242635"/>
<path d="M1246.52 243.636C1246.07 241.659 1244.16 237.749 1243.25 236.344C1246.18 236.491 1246.77 238.423 1247.18 238.997C1247.6 239.571 1246.96 245.612 1246.52 243.636Z" fill="#242635"/>
<ellipse cx="1240.79" cy="298.08" rx="7.85294" ry="7.87284" fill="#FFCA00"/>
<path d="M1245.61 363.539C1244.29 361.38 1235.08 347.701 1234.24 346.501C1234.86 355.603 1241.02 367.4 1244.8 368.429C1245.95 368.743 1246.92 365.699 1245.61 363.539Z" fill="#E1E1E1"/>
</g>
<defs>
<filter id="filter0_f_1_5" x="1210.51" y="782.851" width="593.469" height="628.955" filterUnits="userSpaceOnUse" color-interpolation-filters="sRGB">
<feFlood flood-opacity="0" result="BackgroundImageFix"/>
<feBlend mode="normal" in="SourceGraphic" in2="BackgroundImageFix" result="shape"/>
<feGaussianBlur stdDeviation="11.4934" result="effect1_foregroundBlur_1_5"/>
</filter>
<filter id="filter1_f_1_5" x="966.855" y="608.96" width="423.218" height="189.88" filterUnits="userSpaceOnUse" color-interpolation-filters="sRGB">
<feFlood flood-opacity="0" result="BackgroundImageFix"/>
<feBlend mode="normal" in="SourceGraphic" in2="BackgroundImageFix" result="shape"/>
<feGaussianBlur stdDeviation="5.74671" result="effect1_foregroundBlur_1_5"/>
</filter>
<filter id="filter2_f_1_5" x="1132.18" y="840.352" width="258.367" height="594.922" filterUnits="userSpaceOnUse" color-interpolation-filters="sRGB">
<feFlood flood-opacity="0" result="BackgroundImageFix"/>
<feBlend mode="normal" in="SourceGraphic" in2="BackgroundImageFix" result="shape"/>
<feGaussianBlur stdDeviation="11.4934" result="effect1_foregroundBlur_1_5"/>
</filter>
<linearGradient id="paint0_linear_1_5" x1="999" y1="414.5" x2="-63.4245" y2="1154.58" gradientUnits="userSpaceOnUse">
<stop stop-color="#0B0C18"/>
<stop offset="0.0001" stop-color="#0B0C18"/>
<stop offset="0.861983" stop-color="#232431"/>
<stop offset="0.875" stop-color="#232431"/>
<stop offset="1" stop-color="#0B0C18"/>
</linearGradient>
<linearGradient id="paint1_linear_1_5" x1="599.314" y1="-28.0974" x2="1100.56" y2="502.313" gradientUnits="userSpaceOnUse">
<stop stop-color="#242635"/>
<stop offset="1" stop-color="#494D69"/>
</linearGradient>
<linearGradient id="paint2_linear_1_5" x1="1104.71" y1="687.056" x2="1453.74" y2="1424.55" gradientUnits="userSpaceOnUse">
<stop stop-color="#2C2F41"/>
<stop offset="0.283302" stop-color="#2C2F41"/>
<stop offset="0.51521" stop-color="#2C2F41"/>
<stop offset="1" stop-color="#2C2F41"/>
</linearGradient>
<linearGradient id="paint3_linear_1_5" x1="1104.71" y1="687.056" x2="1453.74" y2="1424.55" gradientUnits="userSpaceOnUse">
<stop stop-color="#3C417C"/>
<stop offset="1" stop-color="#0C0D1C"/>
</linearGradient>
<radialGradient id="paint4_radial_1_5" cx="0" cy="0" r="1" gradientUnits="userSpaceOnUse" gradientTransform="translate(1158.98 747.028) rotate(87.0247) scale(238.639 429.234)">
<stop stop-color="#2B2E41"/>
<stop offset="0.332336" stop-color="#2C2E41"/>
<stop offset="0.581437" stop-color="#2D3041"/>
</radialGradient>
<radialGradient id="paint5_radial_1_5" cx="0" cy="0" r="1" gradientUnits="userSpaceOnUse" gradientTransform="translate(1740.56 1225.29) rotate(-138.54) scale(513.344 803.512)">
<stop stop-color="#303361" stop-opacity="0.83"/>
<stop offset="0.983218" stop-color="#191B34" stop-opacity="0"/>
</radialGradient>
<linearGradient id="paint6_linear_1_5" x1="1161.83" y1="717.201" x2="1555.45" y2="1558.59" gradientUnits="userSpaceOnUse">
<stop stop-color="#3C417C"/>
<stop offset="1" stop-color="#0C0D1C"/>
</linearGradient>
<radialGradient id="paint7_radial_1_5" cx="0" cy="0" r="1" gradientUnits="userSpaceOnUse" gradientTransform="translate(307.382 347.478) rotate(-84.638) scale(348.302 359.844)">
<stop offset="0.477659" stop-color="#292C3E"/>
<stop offset="1" stop-color="#2D3044" stop-opacity="0"/>
</radialGradient>
<radialGradient id="paint8_radial_1_5" cx="0" cy="0" r="1" gradientUnits="userSpaceOnUse" gradientTransform="translate(1176.44 731.769) rotate(174.186) scale(145.242 55.1058)">
<stop stop-color="#2C2F42"/>
<stop offset="0.52458" stop-color="#2B2E40"/>
<stop offset="0.974002" stop-color="#262837"/>
</radialGradient>
<radialGradient id="paint9_radial_1_5" cx="0" cy="0" r="1" gradientUnits="userSpaceOnUse" gradientTransform="translate(1176.44 731.769) rotate(173.897) scale(150.371 57.0519)">
<stop stop-color="#2C2F42"/>
<stop offset="0.791667" stop-color="#313567"/>
<stop offset="1" stop-color="#2E3263"/>
</radialGradient>
<radialGradient id="paint10_radial_1_5" cx="0" cy="0" r="1" gradientUnits="userSpaceOnUse" gradientTransform="translate(1170.92 667.345) rotate(72.7034) scale(109.725 235.831)">
<stop offset="0.140928" stop-color="#252737"/>
<stop offset="1" stop-color="#272A3B"/>
</radialGradient>
<radialGradient id="paint11_radial_1_5" cx="0" cy="0" r="1" gradientUnits="userSpaceOnUse" gradientTransform="translate(147.747 208.977) rotate(-97.2626) scale(209.563 170.447)">
<stop stop-color="#2D3041"/>
<stop offset="0.596662" stop-color="#2B2E41"/>
<stop offset="1" stop-color="#242635"/>
</radialGradient>
<radialGradient id="paint12_radial_1_5" cx="0" cy="0" r="1" gradientUnits="userSpaceOnUse" gradientTransform="translate(347.584 159.157) rotate(142.41) scale(366.449 345.582)">
<stop stop-color="#252737"/>
<stop offset="0.60513" stop-color="#2C2F42"/>
<stop offset="0.841688" stop-color="#262838"/>
<stop offset="1" stop-color="#252737"/>
</radialGradient>
<linearGradient id="paint13_linear_1_5" x1="1306.37" y1="270.168" x2="1306.37" y2="295.606" gradientUnits="userSpaceOnUse">
<stop stop-color="white"/>
<stop offset="1" stop-color="#F9F9F9"/>
</linearGradient>
<radialGradient id="paint14_radial_1_5" cx="0" cy="0" r="1" gradientUnits="userSpaceOnUse" gradientTransform="translate(1365.04 333.478) rotate(129.51) scale(121.297 85.6299)">
<stop stop-color="#C3C3C3"/>
<stop offset="0.52403" stop-color="white"/>
<stop offset="1" stop-color="#C8C8C8"/>
</radialGradient>
<linearGradient id="paint15_linear_1_5" x1="1230.63" y1="354.642" x2="1275.39" y2="431.983" gradientUnits="userSpaceOnUse">
<stop stop-color="white"/>
<stop offset="1" stop-color="#F9F9F9"/>
</linearGradient>
<radialGradient id="paint16_radial_1_5" cx="0" cy="0" r="1" gradientUnits="userSpaceOnUse" gradientTransform="translate(1242.54 401.977) rotate(11.8061) scale(51.3737 52.6795)">
<stop stop-color="#5A5A5A"/>
<stop offset="0.596197" stop-color="#EEEEEE"/>
<stop offset="1" stop-color="white"/>
</radialGradient>
<linearGradient id="paint17_linear_1_5" x1="1303.68" y1="261.09" x2="1318.01" y2="293.534" gradientUnits="userSpaceOnUse">
<stop stop-color="white"/>
<stop offset="1" stop-color="#F9F9F9"/>
</linearGradient>
<linearGradient id="paint18_linear_1_5" x1="1303.68" y1="261.09" x2="1318.01" y2="293.534" gradientUnits="userSpaceOnUse">
<stop stop-color="white"/>
<stop offset="1" stop-color="#F9F9F9"/>
</linearGradient>
<linearGradient id="paint19_linear_1_5" x1="1243.67" y1="271.026" x2="1289.16" y2="349.618" gradientUnits="userSpaceOnUse">
<stop stop-color="white"/>
<stop offset="1" stop-color="#F9F9F9"/>
</linearGradient>
<linearGradient id="paint20_linear_1_5" x1="1230.35" y1="317.093" x2="1202.62" y2="321.593" gradientUnits="userSpaceOnUse">
<stop stop-color="#EFEFEF"/>
<stop offset="0.534453" stop-color="white" stop-opacity="0.465547"/>
<stop offset="1" stop-color="#EFEFEF" stop-opacity="0"/>
</linearGradient>
<linearGradient id="paint21_linear_1_5" x1="1232.47" y1="190.901" x2="1215.7" y2="284.437" gradientUnits="userSpaceOnUse">
<stop stop-color="#7177D1" stop-opacity="0.12"/>
<stop offset="1" stop-color="#242635" stop-opacity="0.22"/>
</linearGradient>
<clipPath id="clip0_1_5">
<rect width="1570" height="1030" fill="white"/>
</clipPath>
</defs>
</svg>
